<svg xmlns="http://www.w3.org/2000/svg" xmlns:xlink="http://www.w3.org/1999/xlink" width="248px" height="64px" viewBox="0 0 248 64"><title>LOGOMARCA DR. LUIS GUSTAVO (2)</title><desc>Created with Sketch.</desc><defs><polygon id="path-1" points="0 0 246.827007 0 246.827007 63.9721739 0 63.9721739"></polygon></defs><g id="Desktop" stroke="none" stroke-width="1" fill="none" fill-rule="evenodd"><g id="1---Home-Page" transform="translate(-40.000000, -40.000000)"><g id="Header" transform="translate(40.000000, 40.000000)"><g id="LOGOMARCA-DR.-LUIS-GUSTAVO-(2)"><polyline id="Fill-1" fill="#1C3357" points="68 37 68 23 70.1626313 23 70.1626313 34.9632694 75 34.9632694 75 37 68 37"></polyline><path d="M75,23 L77.1494041,23 L77.1494041,31.2798769 C77.1494041,32.5101317 77.4276814,33.4323547 77.9865356,34.0526316 C78.5458499,34.6691634 79.3802216,34.9776633 80.4891909,34.9776633 C81.5949404,34.9776633 82.4260924,34.6691634 82.9854066,34.0526316 C83.5447209,33.4323547 83.8225382,32.5101317 83.8225382,31.2798769 L83.8225382,23 L86,23 L86,31.4867919 C86,33.3307697 85.5437173,34.7103591 84.6283922,35.6264964 C83.7130671,36.5421655 82.3322601,37 80.4924106,37 C78.6488815,37 77.2712942,36.5421655 76.3624085,35.6297733 C75.4530629,34.716913 75,33.3368555 75,31.4867919 L75,23" id="Fill-2" fill="#1C3357"></path><path d="M87.137417,22.917777 L88.216723,21 L91,21 L89.2224293,22.917777 L87.137417,22.917777 Z M87,37 L89.2051939,37 L89.2051939,23.7299852 L87,23.7299852 L87,37 Z" id="Fill-3" fill="#1C3357"></path><path d="M90,33.972812 L91.8018133,33.1735318 C91.9735963,33.76761 92.2880547,34.2219859 92.7418483,34.5329953 C93.1985049,34.8472109 93.78209,35.0024865 94.4883092,35.0024865 C95.1596946,35.0024865 95.6941307,34.8220186 96.0897089,34.4642892 C96.4852871,34.1065598 96.6828376,33.6274497 96.6828376,33.0269589 C96.6828376,32.2432521 96.0052489,31.5429086 94.6505488,30.9305088 C94.4596787,30.8402748 94.3170033,30.7715688 94.2129792,30.7312612 C92.6831557,30.0125961 91.6624781,29.3653852 91.1538094,28.7836741 C90.6446636,28.2051693 90.3888977,27.4924587 90.3888977,26.6556192 C90.3888977,25.5668575 90.7744552,24.6865042 91.5427072,24.0113529 C92.3104819,23.3362015 93.318753,23 94.5660888,23 C95.5905837,23 96.449499,23.1900867 97.1399714,23.569344 C97.8299666,23.9490594 98.3066645,24.4968755 98.5724511,25.2059218 L96.8059488,26.0803206 C96.5272785,25.6602977 96.2223636,25.3552429 95.8888182,25.162408 C95.5581358,24.9663668 95.1754414,24.8697203 94.7445523,24.8697203 C94.1385398,24.8697203 93.6556386,25.0222477 93.2991888,25.3240962 C92.9393988,25.629151 92.7614124,26.0363488 92.7614124,26.5470636 C92.7614124,27.3495501 93.5454112,28.0961557 95.117226,28.7868804 C95.2374742,28.8427613 95.3310005,28.8862752 95.3992365,28.9142156 C96.7735009,29.5243252 97.7168761,30.1184034 98.2322252,30.6969082 C98.743757,31.2786193 99,32.003697 99,32.8716833 C99,34.1345002 98.5853348,35.1394405 97.7555273,35.8832979 C96.9257197,36.6266972 95.8076984,37 94.3947829,37 C93.2118658,37 92.2427231,36.738459 91.4840146,36.2158351 C90.7291236,35.6932112 90.2333386,34.9466056 90,33.972812" id="Fill-4" fill="#1C3357"></path><path d="M111.79579,29.8101423 L116.963278,29.8101423 C116.963278,29.9003762 116.966413,30.0281695 116.972682,30.193064 C116.991043,30.625454 117,30.9144773 117,31.0670047 C117,32.9463439 116.473802,34.4019957 115.421406,35.4412891 C114.372145,36.4801243 112.89073,37 110.977609,37 C109.906852,37 108.954769,36.8383118 108.115092,36.5176836 C107.278997,36.1943072 106.545902,35.7087846 105.916256,35.0588255 C105.298701,34.4148209 104.824451,33.6585964 104.495746,32.7878619 C104.163905,31.9194176 104,30.9891379 104,30.000229 C104,28.9920824 104.16704,28.0618027 104.504702,27.2125961 C104.83923,26.3601832 105.334975,25.6103713 105.995074,24.9604122 C106.63099,24.3223622 107.376176,23.8372976 108.233766,23.501096 C109.08867,23.1681008 110.00403,23 110.977609,23 C112.005374,23 112.924317,23.193293 113.736229,23.5757566 C114.545455,23.9582202 115.269145,24.5431376 115.90506,25.333715 L114.353784,26.528284 C113.912674,26.0056601 113.416928,25.6167839 112.866547,25.3616555 C112.313032,25.1065271 111.695477,24.9787338 111.010748,24.9787338 C109.599642,24.9787338 108.446932,25.4422706 107.55262,26.369344 C106.658307,27.2964175 106.211375,28.5006053 106.211375,29.9814494 C106.211375,31.4902339 106.658307,32.7132014 107.55262,33.6494356 C108.446932,34.5888762 109.605464,35.0588255 111.029109,35.0588255 C112.242723,35.0588255 113.194805,34.769344 113.888491,34.1935874 C114.584863,33.6150826 114.931482,32.8313758 114.931482,31.83239 L114.931482,31.6427613 L111.79579,31.6427613 L111.79579,29.8101423" id="Fill-5" fill="#1C3357"></path><path d="M118,23 L120.149034,23 L120.149034,31.2798769 C120.149034,32.5101317 120.427323,33.4323547 120.986661,34.0526316 C121.545538,34.6691634 122.379945,34.9776633 123.48896,34.9776633 C124.595216,34.9776633 125.425943,34.6691634 125.985281,34.0526316 C126.544618,33.4323547 126.822447,32.5101317 126.822447,31.2798769 L126.822447,23 L129,23 L129,31.4867919 C129,33.3307697 128.544158,34.7103591 127.628795,35.6264964 C126.713431,36.5421655 125.332107,37 123.49218,37 C121.649034,37 120.270929,36.5421655 119.362006,35.6297733 C118.452622,34.716913 118,33.3368555 118,31.4867919 L118,23" id="Fill-6" fill="#1C3357"></path><path d="M129,33.972812 L130.801718,33.1735318 C130.973492,33.76761 131.287933,34.2219859 131.741703,34.5329953 C132.198335,34.8472109 132.78189,35.0024865 133.488548,35.0024865 C134.159421,35.0024865 134.694306,34.8220186 135.089386,34.4642892 C135.484943,34.1065598 135.682483,33.6274497 135.682483,33.0269589 C135.682483,32.2432521 135.005408,31.5429086 133.650302,30.9305088 C133.459442,30.8402748 133.316774,30.7715688 133.213233,30.7312612 C131.683491,30.0125961 130.66239,29.3653852 130.153748,28.7836741 C129.645107,28.2051693 129.388877,27.4924587 129.388877,26.6556192 C129.388877,25.5668575 129.774414,24.6865042 130.542625,24.0113529 C131.310837,23.3362015 132.318577,23 133.566324,23 C134.590287,23 135.449157,23.1900867 136.139593,23.569344 C136.829551,23.9490594 137.306224,24.4968755 137.571997,25.2059218 L135.805588,26.0803206 C135.526932,25.6602977 135.222511,25.3552429 134.888506,25.162408 C134.557841,24.9663668 134.175644,24.8697203 133.744301,24.8697203 C133.13832,24.8697203 132.655445,25.0222477 132.299014,25.3240962 C131.939243,25.629151 131.761266,26.0363488 131.761266,26.5470636 C131.761266,27.3495501 132.5457,28.0961557 134.117432,28.7868804 C134.237196,28.8427613 134.331195,28.8862752 134.39895,28.9142156 C135.773142,29.5243252 136.716467,30.1184034 137.231789,30.6969082 C137.743771,31.2786193 138,32.003697 138,32.8716833 C138,34.1345002 137.58488,35.1394405 136.755116,35.8832979 C135.92583,36.6266972 134.807391,37 133.39455,37 C132.211695,37 131.242604,36.738459 130.484413,36.2158351 C129.729085,35.6932112 129.233326,34.9466056 129,33.972812" id="Fill-7" fill="#1C3357"></path><polyline id="Fill-8" fill="#1C3357" points="143.564845 24.9324431 143.564845 37 141.453442 37 141.453442 24.9324431 138 24.9324431 138 23 147 23 147 24.9324431 143.564845 24.9324431"></polyline><path d="M155.698234,37 L154.172945,33.5306257 L148.855182,33.5306257 L147.295772,37 L145,37 L151.504611,23 L158,37 L155.698234,37 Z M149.660247,31.7097243 L153.402923,31.7097243 L152.027949,28.6388311 C151.949564,28.4409774 151.864723,28.2149249 151.780343,27.9606736 C151.695964,27.7064223 151.608356,27.4239723 151.523516,27.1096252 C151.448358,27.405019 151.3732,27.6814595 151.28882,27.9357107 C151.207207,28.189962 151.122828,28.4224864 151.037987,28.6388311 L149.660247,31.7097243 L149.660247,31.7097243 Z" id="Fill-9" fill="#1C3357"></path><path d="M159,37 L153,23 L155.270607,23 L158.284692,30.17925 C158.460633,30.5969602 158.607943,30.9799769 158.723851,31.3352387 C158.840222,31.6872625 158.933964,32.023096 159,32.3441269 C159.081736,32.0045928 159.181944,31.655807 159.304318,31.2945316 C159.426691,30.9300182 159.570769,30.5594912 159.737012,30.17925 L162.738628,23 L165,23 L159,37" id="Fill-10" fill="#1C3357"></path><path d="M178,30.000229 C178,30.9488304 177.826017,31.8447571 177.478051,32.6880092 C177.126939,33.5344675 176.619826,34.2870276 175.951318,34.9498119 C175.276516,35.6125961 174.515847,36.1196467 173.67021,36.4709635 C172.824572,36.8227384 171.935776,37 171.004271,37 C170.061077,37 169.16329,36.8227384 168.308211,36.4677572 C167.449986,36.1100278 166.69606,35.6061835 166.03969,34.9498119 C165.370733,34.2870276 164.86407,33.5372158 164.518802,32.697628 C164.173983,31.8603304 164,30.9611974 164,30.000229 C164,29.0452151 164.173983,28.1460821 164.518802,27.30283 C164.86407,26.4563717 165.370733,25.7006053 166.03969,25.0318665 C166.708198,24.3690823 167.46572,23.865238 168.311358,23.5198757 C169.156996,23.1745133 170.054783,23 171.004271,23 C171.947914,23 172.839857,23.1745133 173.682348,23.5198757 C174.528435,23.865238 175.282361,24.3690823 175.951318,25.0318665 C176.619826,25.7065598 177.126939,26.4691968 177.478051,27.3151971 C177.826017,28.1644037 178,29.0575822 178,30.000229 Z M175.780033,30.000229 C175.780033,29.328284 175.6582,28.6870276 175.416782,28.0773761 C175.175813,27.4709308 174.830545,26.9295272 174.375582,26.4563717 C173.935904,25.9868804 173.422947,25.629151 172.842555,25.3772289 C172.259465,25.1253067 171.648952,24.9975135 171.004271,24.9975135 C170.36004,24.9975135 169.746379,25.1221004 169.166437,25.3708163 C168.586044,25.6199902 168.067243,25.9804679 167.614977,26.4563717 C167.163161,26.9231147 166.815195,27.461312 166.576924,28.0682153 C166.338653,28.6778668 166.219518,29.3218714 166.219518,30.000229 C166.219518,30.6753803 166.338653,31.3129724 166.576924,31.9166694 C166.815195,32.5167021 167.163161,33.0548994 167.614977,33.528055 C168.067243,34.0039588 168.582897,34.3648945 169.16329,34.6136103 C169.740535,34.8627842 170.354195,34.9869131 171.004271,34.9869131 C171.642658,34.9869131 172.250474,34.8627842 172.824572,34.6136103 C173.398221,34.3648945 173.917472,34.0039588 174.375582,33.528055 C174.830545,33.0548994 175.175813,32.5167021 175.416782,31.9102568 C175.6582,31.3065598 175.780033,30.6689678 175.780033,30.000229 L175.780033,30.000229 Z" id="Fill-11" fill="#1C3357"></path><polyline id="Fill-12" fill="#1C3357" points="188.564845 24.9324431 188.564845 37 186.453442 37 186.453442 24.9324431 183 24.9324431 183 23 192 23 192 24.9324431 188.564845 24.9324431"></polyline><path d="M205,30.000229 C205,30.9488304 204.826467,31.8447571 204.478051,32.6880092 C204.126939,33.5344675 203.620276,34.2870276 202.951318,34.9498119 C202.276516,35.6125961 201.516297,36.1196467 200.670659,36.4709635 C199.824572,36.8227384 198.936226,37 198.00472,37 C197.061527,37 196.16329,36.8227384 195.308661,36.4677572 C194.450435,36.1100278 193.69606,35.6061835 193.03969,34.9498119 C192.371183,34.2870276 191.86407,33.5372158 191.519251,32.697628 C191.173983,31.8603304 191,30.9611974 191,30.000229 C191,29.0452151 191.173983,28.1460821 191.519251,27.30283 C191.86407,26.4563717 192.371183,25.7006053 193.03969,25.0318665 C193.708648,24.3690823 194.46572,23.865238 195.311808,23.5198757 C196.157445,23.1745133 197.055233,23 198.00472,23 C198.948364,23 199.839857,23.1745133 200.682798,23.5198757 C201.528435,23.865238 202.28281,24.3690823 202.951318,25.0318665 C203.620276,25.7065598 204.126939,26.4691968 204.478051,27.3151971 C204.826467,28.1644037 205,29.0575822 205,30.000229 Z M202.780482,30.000229 C202.780482,29.328284 202.6582,28.6870276 202.417231,28.0773761 C202.175813,27.4709308 201.830995,26.9295272 201.375582,26.4563717 C200.935904,25.9868804 200.422947,25.629151 199.843004,25.3772289 C199.259915,25.1253067 198.648952,24.9975135 198.00472,24.9975135 C197.360489,24.9975135 196.746829,25.1221004 196.166437,25.3708163 C195.586494,25.6199902 195.067243,25.9804679 194.615427,26.4563717 C194.163611,26.9231147 193.815195,27.461312 193.577374,28.0682153 C193.339103,28.6778668 193.219967,29.3218714 193.219967,30.000229 C193.219967,30.6753803 193.339103,31.3129724 193.577374,31.9166694 C193.815195,32.5167021 194.163611,33.0548994 194.615427,33.528055 C195.067243,34.0039588 195.583347,34.3648945 196.16329,34.6136103 C196.740535,34.8627842 197.354645,34.9869131 198.00472,34.9869131 C198.643107,34.9869131 199.250474,34.8627842 199.824572,34.6136103 C200.398671,34.3648945 200.917922,34.0039588 201.375582,33.528055 C201.830995,33.0548994 202.175813,32.5167021 202.417231,31.9102568 C202.6582,31.3065598 202.780482,30.6689678 202.780482,30.000229 L202.780482,30.000229 Z" id="Fill-13" fill="#1C3357"></path><polyline id="Fill-14" fill="#1C3357" points="206 37 206 23 208.163088 23 208.163088 34.9632694 213 34.9632694 213 37 206 37"></polyline><polyline id="Fill-15" fill="#1C3357" points="213 37 213 23 221 23 221 24.9324431 215.329643 24.9324431 215.329643 28.4416944 221 28.4416944 221 30.4394974 215.329643 30.4394974 215.329643 34.9632694 221 34.9632694 221 37 213 37"></polyline><path d="M222,37 L222,23 L224.838824,23 C226.687351,23 227.985811,23.101404 228.738206,23.3003673 C229.490156,23.5026947 230.148725,23.8391061 230.716134,24.3091209 C231.465416,24.9295596 232.03327,25.7225293 232.419695,26.6918746 C232.806565,27.66122 233,28.7680135 233,30.0084103 C233,31.2521712 232.806565,32.35512 232.419695,33.3148536 C232.03327,34.2745872 231.465416,35.0646734 230.716134,35.6913597 C230.148725,36.1613745 229.505275,36.4977859 228.783563,36.7001133 C228.058293,36.8990766 226.935037,37 225.406678,37 L222,37 Z M224.105106,34.9435653 L225.874924,34.9435653 C226.847435,34.9435653 227.578486,34.8753218 228.064519,34.7349902 C228.550996,34.5946586 228.973441,34.3562871 229.336298,34.026604 C229.825444,33.5729292 230.190969,33.0116028 230.435542,32.3392606 C230.680115,31.6664378 230.803735,30.8830799 230.803735,29.9887062 C230.803735,29.0976966 230.680115,28.3143387 230.435542,27.6419965 C230.190969,26.9691737 229.825444,26.4078473 229.336298,25.9541725 C228.970773,25.6244894 228.529652,25.3861179 228.022274,25.2457863 C227.511784,25.1054547 226.711364,25.0372112 225.627239,25.0372112 L224.105106,25.0372112 L224.105106,34.9435653 L224.105106,34.9435653 Z" id="Fill-16" fill="#1C3357"></path><path d="M248,30.000229 C248,30.9488304 247.826017,31.8447571 247.478051,32.6880092 C247.126489,33.5344675 246.619826,34.2870276 245.951318,34.9498119 C245.276067,35.6125961 244.515847,36.1196467 243.67021,36.4709635 C242.824123,36.8227384 241.935776,37 241.004271,37 C240.061077,37 239.16329,36.8227384 238.308211,36.4677572 C237.449986,36.1100278 236.69606,35.6061835 236.03969,34.9498119 C235.370733,34.2870276 234.86362,33.5372158 234.518802,32.697628 C234.173983,31.8603304 234,30.9611974 234,30.000229 C234,29.0452151 234.173983,28.1460821 234.518802,27.30283 C234.86362,26.4563717 235.370733,25.7006053 236.03969,25.0318665 C236.708198,24.3690823 237.465271,23.865238 238.311358,23.5198757 C239.156996,23.1745133 240.054783,23 241.004271,23 C241.947914,23 242.839857,23.1745133 243.682348,23.5198757 C244.527986,23.865238 245.282361,24.3690823 245.951318,25.0318665 C246.619826,25.7065598 247.126489,26.4691968 247.478051,27.3151971 C247.826017,28.1644037 248,29.0575822 248,30.000229 Z M245.780033,30.000229 C245.780033,29.328284 245.65775,28.6870276 245.416782,28.0773761 C245.175364,27.4709308 244.830545,26.9295272 244.375582,26.4563717 C243.935904,25.9868804 243.422947,25.629151 242.842555,25.3772289 C242.259465,25.1253067 241.648952,24.9975135 241.004271,24.9975135 C240.36004,24.9975135 239.746379,25.1221004 239.165987,25.3708163 C238.586044,25.6199902 238.066793,25.9804679 237.614977,26.4563717 C237.163161,26.9231147 236.815195,27.461312 236.576924,28.0682153 C236.338653,28.6778668 236.219518,29.3218714 236.219518,30.000229 C236.219518,30.6753803 236.338653,31.3129724 236.576924,31.9166694 C236.815195,32.5167021 237.163161,33.0548994 237.614977,33.528055 C238.066793,34.0039588 238.582897,34.3648945 239.16329,34.6136103 C239.740085,34.8627842 240.354195,34.9869131 241.004271,34.9869131 C241.642658,34.9869131 242.250474,34.8627842 242.824123,34.6136103 C243.398221,34.3648945 243.917472,34.0039588 244.375582,33.528055 C244.830545,33.0548994 245.175364,32.5167021 245.416782,31.9102568 C245.65775,31.3065598 245.780033,30.6689678 245.780033,30.000229 L245.780033,30.000229 Z" id="Fill-17" fill="#1C3357"></path><path d="M76.8858753,20.4777589 C76.8858753,20.6225298 76.9394838,20.747317 77.047167,20.8481238 C77.1557825,20.9489305 77.2877061,21 77.4429377,21 C77.5981693,21 77.7300928,20.9489305 77.8387083,20.8481238 C77.9463915,20.747317 78,20.6225298 78,20.4777589 C78,20.3285471 77.9463915,20.2028717 77.8387083,20.0962919 C77.7300928,19.9910443 77.5981693,19.9386426 77.4429377,19.9386426 C77.2877061,19.9386426 77.1557825,19.9910443 77.047167,20.0962919 C76.9394838,20.2028717 76.8858753,20.3285471 76.8858753,20.4777589 Z M73.6530491,18.2751092 L73.6530491,20.9267264 L72.7058101,20.9267264 L72.7058101,15 L74.1159469,15 C74.5294317,15 74.8515489,15.0262009 75.0790355,15.0772704 C75.306522,15.1283399 75.5013773,15.2127156 75.6636013,15.3317297 C75.8565919,15.4756125 76.004365,15.6603508 76.1101835,15.887277 C76.2146036,16.1137592 76.2672797,16.3611132 76.2672797,16.6320036 C76.2672797,17.1058397 76.1465441,17.4775368 75.906005,17.747095 C75.6649998,18.0153208 75.3083867,18.1769669 74.8384964,18.2307009 L76.9809722,20.9267264 L75.8374793,20.9267264 L73.7677247,18.2751092 L73.6530491,18.2751092 Z M73.7169132,17.5259418 L73.8996483,17.5259418 C74.434801,17.5259418 74.7904818,17.4664348 74.9657584,17.3478647 C75.141501,17.2288506 75.2300716,17.0187995 75.2300716,16.7163792 C75.2300716,16.3899785 75.1354409,16.1608319 74.9471119,16.026719 C74.7583167,15.892606 74.4091622,15.8264377 73.8996483,15.8264377 L73.7169132,15.8264377 L73.7169132,17.5259418 Z M67,20.9267264 L67,15 L68.3635208,15 C69.2510912,15 69.8748146,15.0426319 70.2360893,15.1270076 C70.5973641,15.2127156 70.9134212,15.3552661 71.1861254,15.5542151 C71.5460016,15.8166679 71.8187058,16.1523943 72.0042378,16.5627267 C72.190236,16.9735031 72.2830021,17.4420102 72.2830021,17.9669158 C72.2830021,18.4931537 72.190236,18.9603286 72.0042378,19.3666642 C71.8187058,19.7729998 71.5460016,20.107394 71.1861254,20.3725113 C70.9134212,20.5714603 70.6048226,20.7140108 70.2579989,20.7997187 C69.9097767,20.8840944 69.3704284,20.9267264 68.6362249,20.9267264 L67,20.9267264 Z M68.0111031,20.0563245 L68.8609145,20.0563245 C69.3280078,20.0563245 69.679027,20.027015 69.9125736,19.967952 C70.1461203,19.908445 70.3493664,19.8076382 70.5232445,19.6677522 C70.7586558,19.4759085 70.9339323,19.2383243 71.0514048,18.9532233 C71.1688774,18.6690104 71.228546,18.3372807 71.228546,17.9584783 C71.228546,17.5814522 71.1688774,17.2497224 71.0514048,16.9650655 C70.9339323,16.6804086 70.7586558,16.4423803 70.5232445,16.2505366 C70.347968,16.1110947 70.1358647,16.0102879 69.8925287,15.9507808 C69.6473281,15.8912738 69.2627453,15.8624084 68.7420435,15.8624084 L68.0111031,15.8624084 L68.0111031,20.0563245 L68.0111031,20.0563245 Z" id="Fill-18" fill="#A4BDC6"></path><g id="Group-22"><mask id="mask-2" fill="white"><use xlink:href="#path-1"></use></mask><g id="Clip-20"></g><path d="M243.478631,40.8013913 L246.827007,48.4711884 L245.876936,48.4711884 L244.921315,46.2093913 L242.046124,46.2093913 L241.092352,48.4711884 L240.141818,48.4711884 L243.478631,40.8013913 Z M243.478631,42.7417971 L242.308388,45.4576232 L244.650262,45.4576232 L243.478631,42.7417971 Z M224.963807,48.4711884 L224.963807,41.9302029 L222.882809,41.9302029 L222.882809,41.094029 L227.919481,41.094029 L227.919481,41.9302029 L225.849122,41.9302029 L225.849122,48.4711884 L224.963807,48.4711884 Z M208.057721,44.3742609 C208.536457,44.5787826 208.898631,44.8505507 209.142393,45.1895652 C209.383843,45.529971 209.505955,45.9306667 209.505955,46.3935072 C209.505955,47.0729275 209.291333,47.6197101 208.860702,48.0343188 C208.430071,48.4489275 207.858826,48.6571594 207.148816,48.6571594 C206.568783,48.6571594 206.083571,48.5092174 205.690406,48.2114783 C205.299092,47.9142029 205.034978,47.4907826 204.898064,46.944 L205.690406,46.5497971 C205.798642,46.9973333 205.975335,47.3358841 206.220485,47.5649855 C206.467485,47.7954783 206.776466,47.9104928 207.148816,47.9104928 C207.587773,47.9104928 207.943009,47.7829565 208.214062,47.5302029 C208.485114,47.276058 208.62064,46.9472464 208.62064,46.5395942 C208.62064,46.2112464 208.526281,45.9237101 208.337562,45.6811594 C208.146993,45.4372174 207.862526,45.2322319 207.48,45.0638841 L206.585897,44.6803478 C206.096985,44.4758261 205.731573,44.2124058 205.493361,43.8891594 C205.252837,43.5673043 205.133037,43.1805217 205.133037,42.7315942 C205.133037,42.2066087 205.326845,41.7734493 205.716309,41.4311884 C206.103923,41.0889275 206.599773,40.9168696 207.203397,40.9168696 C207.646054,40.9168696 208.028581,41.0114783 208.351438,41.1988406 C208.675684,41.3862029 208.927772,41.6649275 209.107702,42.0313043 L208.383816,42.4941449 C208.221,42.2084638 208.035519,41.9969855 207.831536,41.8578551 C207.62709,41.7182609 207.395816,41.6477681 207.138178,41.6477681 C206.810695,41.6477681 206.541493,41.7493333 206.331959,41.9506087 C206.122888,42.1518841 206.018352,42.4078841 206.018352,42.7209275 C206.018352,42.9824928 206.098835,43.2097391 206.259801,43.4003478 C206.41938,43.5932754 206.670081,43.7616232 207.008202,43.9095652 L208.057721,44.3742609 Z M189.718202,48.4711884 L190.592878,48.4711884 L190.592878,41.094029 L189.718202,41.094029 L189.718202,48.4711884 Z M172.369459,44.6613333 L175.404228,44.6613333 L175.404228,44.9089855 C175.404228,46.0702609 175.076745,46.9871304 174.419929,47.6591304 C173.76265,48.332058 172.867159,48.6673623 171.731607,48.6673623 C171.385159,48.6673623 171.055826,48.6311884 170.743607,48.5574493 C170.429537,48.4832464 170.141371,48.3747246 169.876794,48.2337391 C169.27317,47.9016812 168.806461,47.4425507 168.478978,46.8563478 C168.151032,46.2696812 167.986365,45.6037101 167.986365,44.8575072 C167.986365,44.2434783 168.084425,43.6878841 168.27962,43.1925797 C168.477127,42.6972754 168.772232,42.2604058 169.166785,41.8852174 C169.499818,41.5689275 169.883732,41.3296232 170.323152,41.1696232 C170.762109,41.0077681 171.247783,40.9270725 171.781099,40.9270725 C172.487871,40.9270725 173.100283,41.056 173.620185,41.3124638 C174.140088,41.5703188 174.570719,41.9575652 174.912079,42.4732754 L174.178017,43.0636522 C173.91344,42.6161159 173.582719,42.2826667 173.187704,42.0591304 C172.793152,41.8351304 172.333843,41.7233623 171.81024,41.7233623 C170.955916,41.7233623 170.263021,42.0122899 169.731092,42.5906087 C169.197775,43.1684638 168.931811,43.9234783 168.931811,44.8575072 C168.931811,45.7382029 169.202863,46.4607536 169.743118,47.0246957 C170.283373,47.5891014 170.97303,47.8710725 171.81024,47.8710725 C172.548002,47.8710725 173.162264,47.6475362 173.653026,47.1986087 C174.143326,46.7496812 174.416228,46.1662609 174.469421,45.4474203 L172.369459,45.4474203 L172.369459,44.6613333 Z M153.888863,44.7972174 C153.888863,45.3254493 153.791266,45.8226087 153.597459,46.2882319 C153.403652,46.7561739 153.118723,47.1707826 152.748223,47.533913 C152.375873,47.8965797 151.947092,48.1753043 151.463268,48.3733333 C150.977594,48.5695072 150.475268,48.6673623 149.957215,48.6673623 C149.437313,48.6673623 148.936375,48.5695072 148.454401,48.3733333 C147.973815,48.1753043 147.546884,47.8965797 147.174534,47.533913 C146.798946,47.1675362 146.514017,46.7510725 146.31836,46.2831304 C146.121315,45.8170435 146.023255,45.3217391 146.023255,44.7972174 C146.023255,44.2689855 146.121315,43.7722899 146.31836,43.3024928 C146.514017,42.8345507 146.798946,42.4166957 147.174534,42.0503188 C147.543184,41.6908986 147.970577,41.414029 148.452551,41.2197101 C148.934524,41.0249275 149.437313,40.9270725 149.957215,40.9270725 C150.478506,40.9270725 150.983144,41.0249275 151.466506,41.2197101 C151.95218,41.414029 152.379573,41.6908986 152.748223,42.0503188 C153.118723,42.4134493 153.403652,42.8294493 153.597459,43.2973913 C153.791266,43.7667246 153.888863,44.2657391 153.888863,44.7972174 Z M149.957215,47.8418551 C150.358243,47.8418551 150.741232,47.7662609 151.106644,47.6127536 C151.470206,47.4597101 151.797689,47.2361739 152.089556,46.944 C152.377723,46.6564638 152.597433,46.3281159 152.748223,45.9617391 C152.899013,45.5953623 152.974408,45.2085797 152.974408,44.7972174 C152.974408,44.3844638 152.899013,43.9921159 152.746373,43.6187826 C152.593732,43.245913 152.374022,42.9171014 152.089556,42.6318841 C151.80139,42.3429565 151.475294,42.1226667 151.111732,41.9710145 C150.74632,41.8198261 150.361944,41.7442319 149.957215,41.7442319 C149.546936,41.7442319 149.159322,41.8198261 148.79391,41.9710145 C148.428498,42.1226667 148.104253,42.3429565 147.823024,42.6318841 C147.534858,42.924058 147.315148,43.2542609 147.164358,43.6243478 C147.013105,43.993971 146.93771,44.3844638 146.93771,44.7972174 C146.93771,45.2085797 147.013105,45.5935072 147.162507,45.9566377 C147.31191,46.3193043 147.531157,46.6495072 147.823024,46.944 C148.118129,47.2398841 148.445612,47.4634203 148.805936,47.6146087 C149.16811,47.7662609 149.550637,47.8418551 149.957215,47.8418551 Z M129.02836,48.4711884 L129.02836,41.094029 L129.903036,41.094029 L129.903036,47.6354783 L132.682479,47.6354783 L132.682479,48.4711884 L129.02836,48.4711884 Z M114.592736,44.7972174 C114.592736,45.3254493 114.495139,45.8226087 114.301331,46.2882319 C114.107524,46.7561739 113.822596,47.1707826 113.452096,47.533913 C113.079745,47.8965797 112.650964,48.1753043 112.16714,48.3733333 C111.681466,48.5695072 111.17914,48.6673623 110.661088,48.6673623 C110.141185,48.6673623 109.640247,48.5695072 109.158273,48.3733333 C108.677687,48.1753043 108.250757,47.8965797 107.878406,47.533913 C107.502818,47.1675362 107.21789,46.7510725 107.022232,46.2831304 C106.825187,45.8170435 106.727127,45.3217391 106.727127,44.7972174 C106.727127,44.2689855 106.825187,43.7722899 107.022232,43.3024928 C107.21789,42.8345507 107.502818,42.4166957 107.878406,42.0503188 C108.247056,41.6908986 108.674449,41.414029 109.156423,41.2197101 C109.638397,41.0249275 110.141185,40.9270725 110.661088,40.9270725 C111.182378,40.9270725 111.687017,41.0249275 112.170378,41.2197101 C112.656052,41.414029 113.083446,41.6908986 113.452096,42.0503188 C113.822596,42.4134493 114.107524,42.8294493 114.301331,43.2973913 C114.495139,43.7667246 114.592736,44.2657391 114.592736,44.7972174 Z M110.661088,47.8418551 C111.062116,47.8418551 111.445105,47.7662609 111.810517,47.6127536 C112.174079,47.4597101 112.501562,47.2361739 112.793429,46.944 C113.081596,46.6564638 113.301305,46.3281159 113.452096,45.9617391 C113.602886,45.5953623 113.678281,45.2085797 113.678281,44.7972174 C113.678281,44.3844638 113.602886,43.9921159 113.450245,43.6187826 C113.297605,43.245913 113.077895,42.9171014 112.793429,42.6318841 C112.505262,42.3429565 112.179167,42.1226667 111.815605,41.9710145 C111.450193,41.8198261 111.065816,41.7442319 110.661088,41.7442319 C110.250809,41.7442319 109.863195,41.8198261 109.497783,41.9710145 C109.132371,42.1226667 108.808125,42.3429565 108.526897,42.6318841 C108.23873,42.924058 108.019021,43.2542609 107.86823,43.6243478 C107.716978,43.993971 107.641582,44.3844638 107.641582,44.7972174 C107.641582,45.2085797 107.716978,45.5935072 107.86638,45.9566377 C108.015783,46.3193043 108.23503,46.6495072 108.526897,46.944 C108.822002,47.2398841 109.149485,47.4634203 109.509809,47.6146087 C109.871983,47.7662609 110.254509,47.8418551 110.661088,47.8418551 Z M89.4047491,41.8351304 L89.4047491,44.3033043 L90.0717416,44.3033043 C90.7563109,44.3033043 91.2142322,44.2156522 91.4459682,44.0384928 C91.6777041,43.8631884 91.7924157,43.5552464 91.7924157,43.1151304 C91.7924157,42.642087 91.6740037,42.310029 91.4357921,42.1189565 C91.197118,41.9302029 90.742897,41.8351304 90.0717416,41.8351304 L89.4047491,41.8351304 Z M88.5499625,48.4711884 L88.5499625,41.094029 L90.2775749,41.094029 C90.7715749,41.094029 91.1318989,41.1213913 91.3617846,41.1765797 C91.5916704,41.2331594 91.7942659,41.3277681 91.967721,41.4622609 C92.185118,41.6324638 92.3553352,41.8629565 92.4751348,42.150029 C92.5972472,42.4371014 92.6569157,42.7557101 92.6569157,43.1044638 C92.6569157,43.7082899 92.4890112,44.1678841 92.1513521,44.4823188 C91.814618,44.7972174 91.320618,44.9535072 90.6707397,44.9535072 L90.5143989,44.9535072 L93.326221,48.4711884 L92.214721,48.4711884 L89.5296367,44.9535072 L89.4047491,44.9535072 L89.4047491,48.4711884 L88.5499625,48.4711884 Z M68.1003052,41.094029 L68.9851573,41.094029 L68.9851573,45.6830145 C68.9851573,46.4296812 69.1433483,46.9764638 69.4606554,47.3256812 C69.7761124,47.6748986 70.2738127,47.8502029 70.9495936,47.8502029 C71.6253745,47.8502029 72.1230749,47.6748986 72.4385318,47.3256812 C72.7563015,46.9764638 72.91403,46.4296812 72.91403,45.6830145 L72.91403,41.094029 L73.8044326,41.094029 L73.8044326,45.6830145 C73.8044326,46.6824348 73.5676086,47.4291014 73.0921105,47.9244058 C72.6189251,48.4197101 71.9052154,48.6673623 70.9495936,48.6673623 C69.9976723,48.6673623 69.2858127,48.4197101 68.8121648,47.9244058 C68.3366667,47.4291014 68.1003052,46.6824348 68.1003052,45.6830145 L68.1003052,41.094029 L68.1003052,41.094029 Z" id="Fill-19" fill="#A4BDC6" mask="url(#mask-2)"></path><path d="M27.9919457,57.9482899 C26.7259551,54.4088116 25.0635618,50.3763478 26.8633315,46.7218551 C27.2255056,45.9858551 27.6075693,45.2656232 27.9919457,44.5472464 C28.3763221,45.2656232 28.7588483,45.9858551 29.1210225,46.7218551 C30.9212547,50.3768116 29.2579363,54.4088116 27.9919457,57.9482899 Z M27.9919457,25.0629565 C28.3360805,25.5921159 28.6455243,26.1829565 28.9077884,26.8438261 C31.1844438,32.5806377 29.8185431,38.1310145 27.9919457,41.8388406 C26.1653483,38.1310145 24.7999101,32.5806377 27.0765655,26.8438261 C27.3388296,26.1829565 27.6478109,25.5921159 27.9919457,25.0629565 Z M54.0361067,10.4255072 C56.3317266,19.1554783 54.5361199,26.8211014 48.5632528,33.5828406 C45.9831667,36.5031884 42.5709588,37.4209855 40.8234569,35.4184348 C39.0754925,33.4158841 37.6605618,30.9124638 38.0768539,26.739942 C38.4931461,22.5678841 40.0741311,22.2335072 40.0741311,19.0631884 C40.0741311,15.8924058 38.8257172,15.4750145 38.2433708,14.3902609 C37.6605618,13.3055072 37.2447322,9.21646377 37.9935955,7.13043478 C38.7424588,5.0444058 39.9908727,3.12533333 39.9908727,3.12533333 C39.9908727,3.12533333 36.3288895,3.87617391 36.3288895,9.71733333 C36.3288895,15.5584928 38.3266292,17.394087 37.7438202,19.3971014 C37.6494607,19.7217391 37.5264232,20.0890435 37.3733202,20.5727536 C36.9376011,20.467942 36.4991067,20.4294493 36.0851273,20.3742609 C32.6618184,19.9183768 29.9536067,21.0847536 27.9924082,23.0270145 C25.8734813,20.9289275 22.8886667,19.7931594 19.06803,20.5727536 C19.038427,20.2156522 19.0564663,19.8186667 19.1573015,19.4731594 C19.7396479,17.4706087 21.9034419,12.2968116 19.9061648,5.70481159 C17.9088876,-0.887652174 12.4184569,-1.63663768 7.59131835,2.78631884 C2.76417978,7.20881159 -1.06432022,13.7567536 0.26735206,21.5169855 C1.18180712,26.2158841 2.86501498,28.4447536 2.86501498,28.4447536 C0.569395131,19.7143188 2.36500187,12.0486957 8.33786891,5.28742029 C10.9179551,2.36707246 14.3301629,1.44881159 16.0776648,3.45182609 C17.8256292,5.45437681 19.2405599,7.9577971 18.8242678,12.1298551 C18.4079757,16.3023768 16.8269906,16.6362899 16.8269906,19.8070725 C16.8269906,22.9773913 18.0754045,23.3952464 18.6577509,24.4795362 C19.2405599,25.5647536 19.6563895,29.6533333 18.9075262,31.7393623 C18.1586629,33.8258551 16.9102491,35.7449275 16.9102491,35.7449275 C16.9102491,35.7449275 20.5722322,34.994087 20.5722322,29.1529275 C20.5722322,24.4224928 19.2697004,22.3833043 19.0814438,20.6905507 C20.5324532,20.6970435 24.4627135,20.9484058 27.1514981,23.9615072 C22.4853258,29.7669565 24.0843502,37.1385507 27.2662097,43.1842319 C27.1487228,43.3827246 27.031236,43.5733333 26.9146742,43.7555942 C24.6671592,47.2602899 23.8586273,51.7546667 25.7365674,55.9063188 C26.3041124,57.1612754 26.8947846,58.3967536 27.4419775,59.5107246 C26.933176,60.998029 26.4803427,62.4964638 26.2416685,64 C26.2416685,64 26.9905318,62.6124058 27.9919457,60.6172754 C28.9933596,62.6124058 29.7426854,64 29.7426854,64 C29.5035487,62.4964638 29.0511779,60.998029 28.5423764,59.5107246 C29.0895693,58.3967536 29.6802416,57.1612754 30.2477865,55.9063188 C32.1257266,51.7546667 31.3171948,47.2602899 29.0696798,43.7555942 C28.953118,43.5733333 28.8356311,43.3827246 28.7186067,43.1842319 C31.8995412,37.1390145 33.4990281,29.766029 28.8328558,23.9610435 C31.1113614,21.4075362 34.2867453,20.7911884 36.0860524,20.6590145 C36.6966142,20.6144928 37.133721,20.6604058 37.3363165,20.6905507 C36.5448989,23.1953623 35.326088,27.6568116 36.9949569,33.1654493 C38.9922341,39.7574493 44.4826648,40.5064348 49.3098034,36.083942 C54.1369419,31.6614493 57.9649794,25.1135072 56.6337697,17.3528116 C55.7193146,12.653913 54.0361067,10.4255072 54.0361067,10.4255072 L54.0361067,10.4255072 Z" id="Fill-21" fill="#8FD1E9" mask="url(#mask-2)"></path></g></g></g></g></g></svg>